<svg id="Слой_1" data-name="Слой 1" xmlns="http://www.w3.org/2000/svg" xmlns:xlink="http://www.w3.org/1999/xlink" viewBox="0 0 11.87592 3.73695">
  <defs>
    <style>
      .cls-1 {
        fill: #484848;
      }

      .cls-2 {
        fill: url(#Безымянный_градиент_36);
      }
    </style>
    <linearGradient id="Безымянный_градиент_36" data-name="Безымянный градиент 36" x1="0.61063" y1="3.69147" x2="2.50851" y2="-0.37853" gradientUnits="userSpaceOnUse">
      <stop offset="0" stop-color="#00fcff"/>
      <stop offset="0.20425" stop-color="#0ddefb"/>
      <stop offset="1" stop-color="#3f68ed"/>
    </linearGradient>
  </defs>
  <title>Usource</title>
  <g>
    <path id="source" class="cls-1" d="M3.27634,3.0872c0,.07016.02339.10023.10691.12362a1.75773,1.75773,0,0,0,.47108.06348c.431,0,.63144-.13364.63144-.431,0-.23721-.1069-.34078-.33408-.44769l-.42433-.19377c-.11694-.05346-.17707-.127-.17707-.22049,0-.13364.09355-.18709.33744-.18709a1.31634,1.31634,0,0,1,.4176.06348c.07687.02339.10694.00334.10694-.08018V1.7475c0-.07684-.02007-.09689-.10025-.12362a1.24646,1.24646,0,0,0-.41759-.06348c-.40428,0-.59137.13029-.59137.421,0,.23052.09688.33076.31071.43432l.4076.19377c.16039.07684.21718.13363.21718.24055,0,.14366-.10694.19043-.36419.19043a1.83462,1.83462,0,0,1-.49111-.06683c-.08018-.01671-.10691.00334-.10691.08686v.02673Zm2.71617-.51451c0,.32074-.11359.4644-.47774.4644s-.48447-.14366-.48447-.4644V2.262c0-.32073.11359-.46439.48447-.46439.36415,0,.47774.14366.47774.46439Zm-.47774.70161c.48443,0,.7283-.23387.7283-.70161V2.262c0-.4577-.21046-.7016-.7283-.7016-.49112,0-.735.23387-.735.7016v.31071C4.77974,3.03041,4.99358,3.2743,5.51477,3.2743ZM6.801,1.7007c0-.08352-.01673-.10691-.10694-.10691H6.65732c-.08352,0-.1069.02339-.1069.10691v.94884c0,.41762.23387.62476.69827.62476.49112,0,.69492-.22049.69492-.62476V1.7007c0-.08352-.01669-.10691-.1069-.10691H7.8c-.08352,0-.1069.02339-.1069.10691v.94884c0,.26728-.10694.38755-.44436.38755S6.801,2.91347,6.801,2.64954V1.7007Zm1.73392.451c0-.24055.08017-.35414.32074-.35414.03007,0,.06348.00334.10355.00668.08352.01336.10359-.00334.10359-.08686V1.684c0-.08353-.01673-.10691-.10025-.11694a.96209.96209,0,0,0-.1069-.00668.50838.50838,0,0,0-.57129.578V3.134c0,.09021.02338.10692.1069.10692H8.428c.09017,0,.1069-.01671.1069-.10692Zm.63478.431c0,.47107.24391.69158.75506.69158a1.01231,1.01231,0,0,0,.3107-.04344c.08352-.02338.10694-.05011.10694-.12027V3.07718c0-.08352-.02342-.11025-.10025-.08352a.91966.91966,0,0,1-.3007.04343c-.37084,0-.52119-.12027-.52119-.45771V2.2553c0-.31071.127-.4577.50116-.4577a.84949.84949,0,0,1,.28732.04676c.08017.02672.10024.00334.10024-.08019V1.73076c0-.07684-.02007-.10023-.10024-.127a.892.892,0,0,0-.294-.04343c-.50781,0-.745.25391-.745.69158v.33078Zm2.7062-.35415a.60629.60629,0,0,0-.68488-.66819.62221.62221,0,0,0-.705.705V2.576c0,.49447.24721.69827.77175.69827a1.57869,1.57869,0,0,0,.45774-.06349c.09018-.02673.10356-.05011.10356-.12028V3.06047c0-.08353-.02673-.11025-.1069-.08687a1.69207,1.69207,0,0,1-.4544.06349c-.37084,0-.52119-.12027-.52119-.4243V2.51256h1.009c.09022,0,.11029-.02005.12029-.10357a1.253,1.253,0,0,0,.01-.18042Zm-1.13928-.03675c0-.27061.15035-.40759.45105-.40759s.451.137.451.40759v.11025h-.90207V2.19182Z"/>
    <path id="U" class="cls-2" d="M.2013,1.52635l-.14313.77789a3.46905,3.46905,0,0,0-.05386.40663,1.40868,1.40868,0,0,0,.02263.38894.69443.69443,0,0,0,.35012.48056,1.54035,1.54035,0,0,0,.71952.15624,2.04288,2.04288,0,0,0,.679-.08841,1.25184,1.25184,0,0,0,.4527-.25357,1.3039,1.3039,0,0,0,.36214-.54525,4.1792,4.1792,0,0,0,.17357-.663L3.02809.70126a.94759.94759,0,0,1,.09428-.271A.55935.55935,0,0,1,3.37517.218Q3.50342.15323,3.50342.112q.0075-.02358-.01891-.03536A.25432.25432,0,0,0,3.42035.05892.491.491,0,0,0,3.34492.053h-.4074A1.21466,1.21466,0,0,0,2.6093.09427a.594.594,0,0,0-.25273.14146.68064.68064,0,0,0-.17351.3536L1.85861,2.375a2.25027,2.25027,0,0,1-.04147.22987A1.73305,1.73305,0,0,1,1.753,2.817a.4765.4765,0,0,1-.18856.21513.59.59,0,0,1-.31689.07956.55011.55011,0,0,1-.24144-.05893.25635.25635,0,0,1-.12826-.17092.88254.88254,0,0,1-.00377-.14439q.00374-.07951.01158-.15615t.01952-.14439q.01173-.06778.01951-.109L1.33961,0A1.31756,1.31756,0,0,0,.80415.21508,1.198,1.198,0,0,0,.48008.56869a1.55616,1.55616,0,0,0-.177.45083Q.2465,1.267.2013,1.52635Z"/>
  </g>
</svg>
