<svg class="s1idml5g-1 kVBIMV" xmlns="http://www.w3.org/2000/svg" viewBox="0 0 8 8" color="white" fill="#ffffff"><path d="M5.714,4.358C5.714,4.247,5.669,4.167,5.58,4.117C5.58,4.117,3.294,2.6879999999999997,3.294,2.6879999999999997C3.202,2.6289999999999996,3.105,2.6259999999999994,3.004,2.6790000000000003C2.906,2.7329999999999997,2.857,2.816,2.857,2.9290000000000003C2.857,2.9290000000000003,2.857,5.787,2.857,5.787C2.857,5.9,2.906,5.983,3.004,6.037C3.052,6.0600000000000005,3.098,6.072,3.143,6.072C3.202,6.072,3.253,6.057,3.294,6.026999999999999C3.294,6.026999999999999,5.58,4.599,5.58,4.599C5.669,4.548,5.714,4.468,5.714,4.358C5.714,4.358,5.714,4.358,5.714,4.358M8,4.358C8,4.643,7.998,4.867,7.995,5.026999999999999C7.992,5.188,7.98,5.3919999999999995,7.957,5.6370000000000005C7.935,5.883,7.902,6.102,7.857,6.295999999999999C7.809,6.513,7.707,6.696,7.549,6.845C7.391,6.993,7.207,7.079,6.995,7.104C6.335,7.178,5.336,7.215,4,7.215C2.664,7.215,1.665,7.178,1.005,7.104C0.793,7.08,0.608,6.993,0.449,6.845C0.29,6.696,0.186,6.513,0.139,6.295999999999999C0.097,6.102,0.065,5.883,0.043,5.6370000000000005C0.02,5.3919999999999995,0.008,5.188,0.005,5.026999999999999C0.002,4.867,0,4.643,0,4.358C0,4.072,0.002,3.849,0.005,3.6879999999999997C0.008,3.527,0.02,3.324,0.043,3.0789999999999997C0.065,2.833,0.098,2.6129999999999995,0.143,2.42C0.191,2.2030000000000003,0.293,2.0199999999999996,0.451,1.8709999999999996C0.609,1.7219999999999995,0.793,1.6360000000000001,1.005,1.612C1.665,1.5380000000000003,2.664,1.5,4,1.5C5.336,1.5,6.335,1.5380000000000003,6.995,1.612C7.207,1.6360000000000001,7.392,1.7219999999999995,7.551,1.8709999999999996C7.71,2.0199999999999996,7.814,2.2030000000000003,7.861,2.42C7.903,2.6129999999999995,7.935,2.833,7.957,3.0789999999999997C7.98,3.324,7.992,3.527,7.995,3.6879999999999997C7.998,3.849,8,4.072,8,4.358C8,4.358,8,4.358,8,4.358"></path></svg>
