<?xml version="1.0" standalone="no"?>
<!DOCTYPE svg PUBLIC "-//W3C//DTD SVG 20010904//EN"
 "http://www.w3.org/TR/2001/REC-SVG-20010904/DTD/svg10.dtd">
<svg version="1.0" xmlns="http://www.w3.org/2000/svg"
 width="700.000000pt" height="700.000000pt" viewBox="0 0 700.000000 700.000000"
 preserveAspectRatio="xMidYMid meet">
<metadata>
Created by potrace 1.11, written by Peter Selinger 2001-2013
</metadata>
<g transform="translate(0.000000,700.000000) scale(0.100000,-0.100000)"
fill="#000000" stroke="none">
<path d="M3285 6994 c-305 -30 -421 -48 -631 -99 -476 -117 -944 -348 -1339
-661 -141 -113 -436 -408 -549 -549 -409 -516 -656 -1108 -742 -1780 -25 -196
-25 -614 0 -810 86 -672 333 -1264 742 -1780 113 -141 408 -436 549 -549 516
-409 1108 -656 1780 -742 196 -25 614 -25 810 0 672 86 1264 333 1780 742 141
113 436 408 549 549 409 516 656 1108 742 1780 25 196 25 614 0 810 -86 672
-333 1264 -742 1780 -113 141 -408 436 -549 549 -515 408 -1109 657 -1775 741
-117 15 -536 28 -625 19z m-495 -3106 c0 -999 6 -1212 36 -1318 58 -201 212
-350 419 -405 221 -58 529 -29 675 65 68 43 149 134 183 204 67 138 77 323 77
1514 l0 932 355 0 355 0 0 -942 c0 -1142 -11 -1392 -70 -1622 -97 -381 -395
-652 -819 -746 -136 -30 -280 -42 -501 -41 -348 0 -588 40 -768 126 -250 120
-412 278 -522 507 -47 98 -72 190 -94 348 -31 228 -36 400 -36 1383 l0 987
355 0 355 0 0 -992z"/>
</g>
</svg>
