<?xml version="1.0" standalone="no"?>
<!DOCTYPE svg PUBLIC "-//W3C//DTD SVG 20010904//EN"
 "http://www.w3.org/TR/2001/REC-SVG-20010904/DTD/svg10.dtd">
<svg version="1.0" xmlns="http://www.w3.org/2000/svg"
 width="906.000000pt" height="906.000000pt" viewBox="0 0 906.000000 906.000000"
 preserveAspectRatio="xMidYMid meet">
<metadata>
Created by potrace 1.11, written by Peter Selinger 2001-2013
</metadata>
<g transform="translate(0.000000,906.000000) scale(0.100000,-0.100000)"
fill="#000000" stroke="none">
<path d="M3505 8963 c-714 -159 -1147 -382 -1569 -808 -283 -286 -488 -607
-656 -1030 -98 -245 -153 -448 -251 -915 -76 -358 -44 -192 -299 -1575 -284
-1540 -287 -1558 -325 -1985 -23 -250 -16 -643 14 -843 110 -713 461 -1171
1101 -1432 437 -179 905 -254 1586 -255 314 0 463 8 698 36 684 81 1289 312
1736 662 123 97 374 349 479 480 184 233 322 467 439 748 96 229 257 748 347
1120 84 346 79 316 485 2604 149 839 282 1572 295 1630 45 192 100 344 186
510 110 215 264 350 623 545 230 125 299 188 294 270 -3 35 -8 42 -43 62 -97
54 -120 56 -790 61 -647 4 -775 -1 -1015 -39 -694 -110 -1086 -456 -1256
-1109 -24 -90 -784 -4263 -819 -4495 -55 -358 -171 -790 -261 -968 -124 -243
-347 -439 -616 -541 -413 -155 -977 -96 -1226 130 -82 73 -142 172 -184 299
-19 58 -15 436 6 654 26 262 36 320 300 1801 135 756 362 2034 506 2840 143
806 264 1484 269 1508 9 45 4 48 -54 35z"/>
</g>
</svg>
